<?xml version="1.0" encoding="UTF-8" standalone="no"?>
<svg
   xmlns:dc="http://purl.org/dc/elements/1.1/"
   xmlns:cc="http://creativecommons.org/ns#"
   xmlns:rdf="http://www.w3.org/1999/02/22-rdf-syntax-ns#"
   xmlns:svg="http://www.w3.org/2000/svg"
   xmlns="http://www.w3.org/2000/svg"
   xmlns:sodipodi="http://sodipodi.sourceforge.net/DTD/sodipodi-0.dtd"
   xmlns:inkscape="http://www.inkscape.org/namespaces/inkscape"
   version="1.1"
   id="svg2"
   width="270.03699"
   height="71.483002"
   viewBox="0 0 270.03699 71.483003"
   sodipodi:docname="__AAU_LEFT_RGB.svg"
   inkscape:version="1.0.1 (3bc2e813f5, 2020-09-07)">
  <metadata
     id="metadata28">
    <rdf:RDF>
      <cc:Work
         rdf:about="">
        <dc:format>image/svg+xml</dc:format>
        <dc:type
           rdf:resource="http://purl.org/dc/dcmitype/StillImage" />
        <dc:title></dc:title>
      </cc:Work>
    </rdf:RDF>
  </metadata>
  <defs
     id="defs6" />
  <sodipodi:namedview
     id="namedview4"
     pagecolor="#ffffff"
     bordercolor="#000000"
     borderopacity="0.25"
     inkscape:showpageshadow="2"
     inkscape:pageopacity="0.0"
     inkscape:pagecheckerboard="0"
     inkscape:deskcolor="#d1d1d1"
     inkscape:document-rotation="0"
     showgrid="false"
     inkscape:zoom="1.5975"
     inkscape:cx="364.69943"
     inkscape:cy="-2.9064035"
     inkscape:window-width="1440"
     inkscape:window-height="1208"
     inkscape:window-x="1536"
     inkscape:window-y="532"
     inkscape:window-maximized="0"
     inkscape:current-layer="g10" />
  <g
     id="g8"
     inkscape:groupmode="layer"
     inkscape:label="ink_ext_XXXXXX"
     transform="matrix(1.3333333,0,0,-1.3333333,0,266.66667)">
    <g
       id="g10"
       transform="scale(0.1)">
      <path
         d="m 747.16255,1840.7184 h 25.3906 c 0.6797,0 0.9096,0.33 0.6797,1.02 l -12.9552,43.8302 c -0.1199,0.44 -0.2799,0.65 -0.5098,0.6 -0.2299,-0.06 -0.3998,-0.27 -0.5198,-0.6 l -12.7752,-43.8302 c -0.12,-0.69 0.1099,-1.02 0.6897,-1.02 z m 37.4861,-37.6902 -4.4284,15.1701 c -0.2199,0.46 -0.5098,0.69 -0.8497,0.69 h -38.8655 c -0.3399,0 -0.6198,-0.23 -0.8497,-0.69 l -4.4383,-15.1701 c -0.3399,-1.14 -1.1296,-1.7 -2.3792,-1.7 h -26.0803 c -0.6897,0 -1.1995,0.19 -1.5394,0.59 -0.3399,0.4 -0.3998,1 -0.1599,1.79 l 36.4664,115.2706 c 0.3399,1.14 1.0796,1.72 2.2192,1.72 h 32.218 c 1.1396,0 1.8793,-0.58 2.2192,-1.72 l 36.6464,-115.2706 c 0.1099,-0.23 0.1699,-0.51 0.1699,-0.85 0,-1.03 -0.6298,-1.53 -1.8793,-1.53 h -26.0703 c -1.2595,0 -2.0492,0.56 -2.3991,1.7"
         style="fill:#21234f;fill-opacity:1;fill-rule:nonzero;stroke:none;stroke-width:0.999816"
         id="path12" />
      <path
         d="m 896.13725,1840.7184 h 25.3905 c 0.6798,0 0.9197,0.33 0.6798,1.02 l -12.9552,43.8302 c -0.11,0.44 -0.2799,0.65 -0.4998,0.6 -0.2399,-0.06 -0.3999,-0.27 -0.5198,-0.6 l -12.7853,-43.8302 c -0.11,-0.69 0.11,-1.02 0.6898,-1.02 z m 37.496,-37.6902 -4.4383,15.1701 c -0.22,0.46 -0.4998,0.69 -0.8497,0.69 h -38.8556 c -0.3399,0 -0.6297,-0.23 -0.8597,-0.69 l -4.4383,-15.1701 c -0.3399,-1.14 -1.1296,-1.7 -2.3791,-1.7 h -26.0803 c -0.6898,0 -1.1896,0.19 -1.5295,0.59 -0.3498,0.4 -0.4098,1 -0.1699,1.79 l 36.4664,115.2706 c 0.3499,1.14 1.0896,1.72 2.2192,1.72 h 32.228 c 1.1296,0 1.8693,-0.58 2.2092,-1.72 l 36.6464,-115.2706 c 0.11,-0.23 0.1699,-0.51 0.1699,-0.85 0,-1.03 -0.6297,-1.53 -1.8793,-1.53 h -26.0703 c -1.2595,0 -2.0492,0.56 -2.3891,1.7"
         style="fill:#21234f;fill-opacity:1;fill-rule:nonzero;stroke:none;stroke-width:0.999816"
         id="path14" />
      <path
         d="m 1007.7057,1801.9182 c -0.3999,0.4 -0.5998,0.88 -0.5998,1.46 v 115.2706 c 0,0.57 0.1999,1.06 0.5998,1.45 0.3898,0.39 0.8797,0.6 1.4395,0.6 h 24.211 c 0.5697,0 1.0496,-0.21 1.4494,-0.6 0.3999,-0.39 0.5898,-0.88 0.5898,-1.45 v -92.2605 c 0,-0.57 0.2899,-0.84 0.8597,-0.84 h 54.3798 c 0.5598,0 1.0396,-0.21 1.4394,-0.61 0.3999,-0.39 0.6098,-0.88 0.6098,-1.45 v -20.1101 c 0,-0.58 -0.2099,-1.06 -0.6098,-1.46 -0.3998,-0.4 -0.8796,-0.59 -1.4394,-0.59 h -81.4897 c -0.5598,0 -1.0497,0.19 -1.4395,0.59"
         style="fill:#21234f;fill-opacity:1;fill-rule:nonzero;stroke:none;stroke-width:0.999816"
         id="path16" />
      <path
         d="m 1193.4267,1828.8684 c 2.499,2.11 3.7486,5.13 3.7486,9.12 0,3.86 -1.2196,6.85 -3.6687,8.95 -2.4391,2.1001 -5.9977,3.1601 -10.656,3.1601 h -18.2332 c -0.5698,0 -0.8597,-0.29 -0.8597,-0.86 v -22.6802 c 0,-0.57 0.2899,-0.85 0.8597,-0.85 h 18.2332 c 4.5583,0 8.067,1.05 10.5761,3.1601 z m -29.669,66.7503 v -21.4801 c 0,-0.57 0.2899,-0.85 0.8597,-0.85 h 16.8737 c 4.6683,0 8.2369,0.99 10.736,2.98 2.4991,1.99 3.7586,4.8 3.7586,8.44 0,3.75 -1.2595,6.6601 -3.7586,8.7101 -2.4991,2.04 -6.0677,3.06 -10.736,3.06 h -16.8737 c -0.5698,0 -0.8597,-0.29 -0.8597,-0.86 z m 46.1928,-33.2402 c 10.3562,-5.47 15.5243,-14.5601 15.5243,-27.2801 0,-11.3801 -3.9186,-19.8501 -11.7657,-25.4101 -7.8471,-5.5801 -18.1232,-8.3601 -30.8585,-8.3601 h -45.3432 c -0.5597,0 -1.0496,0.19 -1.4394,0.59 -0.3999,0.4 -0.5998,0.88 -0.5998,1.46 v 115.2706 c 0,0.57 0.1999,1.06 0.5998,1.45 0.3898,0.39 0.8797,0.6 1.4394,0.6 h 43.9837 c 13.8548,0 24.341,-2.62 31.4483,-7.85 7.0974,-5.2301 10.6561,-13.7001 10.6561,-25.4102 0,-11.14 -4.5384,-19.1601 -13.645,-24.0401 -0.6697,-0.35 -0.6697,-0.69 0,-1.02"
         style="fill:#21234f;fill-opacity:1;fill-rule:nonzero;stroke:none;stroke-width:0.999816"
         id="path18" />
      <path
         d="m 1329.0263,1828.9484 c 3.3487,3.53 5.0281,8.24 5.0281,14.15 v 35.3002 c 0,5.8 -1.6794,10.4901 -5.0281,14.0801 -3.3488,3.57 -7.7572,5.37 -13.2151,5.37 -5.338,0 -9.6864,-1.8 -13.0352,-5.37 -3.3487,-3.59 -5.0281,-8.2801 -5.0281,-14.0801 v -35.3002 c 0,-5.91 1.6794,-10.62 5.0281,-14.15 3.3488,-3.5201 7.6972,-5.2801 13.0352,-5.2801 5.4579,0 9.8663,1.76 13.2151,5.2801 z m -37.4961,-23.9502 c -6.9974,3.6901 -12.4254,8.8901 -16.2839,15.5901 -3.8686,6.71 -5.7879,14.5101 -5.7879,23.3701 v 34.1102 c 0,8.63 1.9193,16.2801 5.7879,22.9201 3.8585,6.66 9.2865,11.8301 16.2839,15.5301 6.9874,3.69 15.0744,5.54 24.281,5.54 9.2066,0 17.3335,-1.85 24.3809,-5.54 7.0474,-3.7 12.5054,-8.8701 16.3639,-15.5301 3.8586,-6.64 5.7879,-14.2901 5.7879,-22.9201 v -34.1102 c 0,-8.86 -1.9293,-16.6601 -5.7879,-23.3701 -3.8585,-6.7 -9.3165,-11.9 -16.3639,-15.5901 -7.0474,-3.69 -15.1743,-5.55 -24.3809,-5.55 -9.2066,0 -17.2936,1.86 -24.281,5.55"
         style="fill:#21234f;fill-opacity:1;fill-rule:nonzero;stroke:none;stroke-width:0.999816"
         id="path20" />
      <path
         d="m 1436.1465,1895.6187 v -24.2101 c 0,-0.57 0.2898,-0.84 0.8596,-0.84 h 18.923 c 4.1984,0 7.6172,1.16 10.2262,3.49 2.609,2.33 3.9185,5.43 3.9185,9.29 0,3.97 -1.3095,7.1601 -3.9185,9.5501 -2.609,2.39 -6.0278,3.58 -10.2262,3.58 h -18.923 c -0.5698,0 -0.8596,-0.29 -0.8596,-0.86 z m 33.2476,-92.7605 -20.1125,45.3603 c -0.2399,0.45 -0.5798,0.68 -1.0296,0.68 h -11.2459 c -0.5698,0 -0.8596,-0.29 -0.8596,-0.8501 v -44.6702 c 0,-0.58 -0.19,-1.06 -0.5898,-1.46 -0.3999,-0.4 -0.8797,-0.59 -1.4495,-0.59 h -24.211 c -0.5598,0 -1.0496,0.19 -1.4395,0.59 -0.3998,0.4 -0.5997,0.88 -0.5997,1.46 v 115.2706 c 0,0.57 0.1999,1.06 0.5997,1.45 0.3899,0.39 0.8797,0.6 1.4395,0.6 h 50.6312 c 7.5072,0 14.0948,-1.54 19.7726,-4.61 5.6879,-3.06 10.0863,-7.4201 13.2151,-13.0401 3.1189,-5.63 4.6783,-12.09 4.6783,-19.3601 0,-7.62 -1.8693,-14.21 -5.6179,-19.7901 -3.7486,-5.56 -8.9867,-9.6 -15.6842,-12.1 -0.5698,-0.22 -0.7397,-0.63 -0.5098,-1.2 l 22.5016,-46.8903 c 0.22,-0.45 0.3399,-0.79 0.3399,-1.02 0,-0.91 -0.6298,-1.36 -1.8793,-1.36 h -25.5605 c -1.1396,0 -1.9393,0.5 -2.3891,1.53"
         style="fill:#21234f;fill-opacity:1;fill-rule:nonzero;stroke:none;stroke-width:0.999816"
         id="path22" />
      <path
         d="m 1563.0693,1805.4182 c -6.8875,3.6401 -12.2255,8.7601 -16.0241,15.3401 -3.8185,6.6 -5.7078,14.2201 -5.7078,22.8501 v 34.9602 c 0,8.64 1.8893,16.2301 5.7078,22.7801 3.7986,6.52 9.1366,11.6201 16.0241,15.2501 6.8674,3.63 14.8545,5.46 23.9411,5.46 8.9866,0 16.9337,-1.73 23.8711,-5.21 6.9274,-3.46 12.2954,-8.2001 16.104,-14.2301 3.8086,-6.03 5.7079,-12.68 5.7079,-19.9501 v -0.85 c 0,-0.57 -0.1899,-1.06 -0.5898,-1.45 -0.3998,-0.41 -0.8796,-0.61 -1.4494,-0.61 h -24.211 c -0.5598,0 -1.0496,0.2 -1.4395,0.61 -0.3999,0.39 -0.6098,0.88 -0.6098,1.45 0,4.43 -1.5594,8.2101 -4.6782,11.3301 -3.1289,3.14 -7.3673,4.7 -12.7053,4.7 -5.2181,0 -9.4265,-1.71 -12.6153,-5.12 -3.1788,-3.41 -4.7683,-7.8501 -4.7683,-13.3001 v -36.6702 c 0,-5.46 1.7694,-9.89 5.2881,-13.3 3.5187,-3.4101 7.947,-5.1101 13.295,-5.1101 4.9982,0 9.0367,1.33 12.0955,4.0101 3.0789,2.66 4.6083,6.38 4.6083,11.17 v 4.77 c 0,0.56 -0.2799,0.85 -0.8497,0.85 h -17.0536 c -0.5698,0 -1.0396,0.2 -1.4395,0.6 -0.3998,0.4 -0.5998,0.88 -0.5998,1.46 v 18.7501 c 0,0.56 0.2,1.05 0.5998,1.44 0.3999,0.4 0.8697,0.61 1.4395,0.61 h 43.6438 c 0.5698,0 1.0496,-0.21 1.4494,-0.61 0.3999,-0.39 0.5898,-0.88 0.5898,-1.44 v -23.2001 c 0,-8.52 -1.8993,-16.0201 -5.7079,-22.5101 -3.8086,-6.48 -9.1466,-11.48 -16.014,-15.0001 -6.8875,-3.53 -14.8645,-5.29 -23.9611,-5.29 -9.0866,0 -17.0737,1.82 -23.9411,5.46"
         style="fill:#21234f;fill-opacity:1;fill-rule:nonzero;stroke:none;stroke-width:0.999816"
         id="path24" />
      <path
         d="m 730.18885,1592.0072 c -6.8674,3.461 -12.2054,8.379 -16.014,14.7501 -3.8086,6.36 -5.7179,13.692 -5.7179,21.9891 v 76.7424 c 0,0.558 0.1999,1.051 0.5998,1.437 0.3998,0.41 0.8797,0.614 1.4494,0.614 h 24.201 c 0.5698,0 1.0497,-0.204 1.4495,-0.614 0.3999,-0.386 0.5898,-0.879 0.5898,-1.437 v -76.7424 c 0,-5.34 1.5694,-9.6291 4.6982,-12.8681 3.1289,-3.25 7.3073,-4.871 12.5254,-4.871 5.1181,0 9.2366,1.621 12.3554,4.871 3.1288,3.239 4.6883,7.5281 4.6883,12.8681 v 76.7424 c 0,0.558 0.1999,1.051 0.5997,1.437 0.3999,0.41 0.8797,0.614 1.4495,0.614 h 24.201 c 0.5798,0 1.0596,-0.204 1.4595,-0.614 0.3998,-0.386 0.5897,-0.879 0.5897,-1.437 v -76.7424 c 0,-8.2971 -1.8693,-15.6291 -5.6179,-21.9891 -3.7486,-6.3711 -9.0666,-11.2891 -15.9441,-14.7501 -6.8674,-3.48 -14.7945,-5.211 -23.7811,-5.211 -8.9767,0 -16.9037,1.731 -23.7812,5.211"
         style="fill:#21234f;fill-opacity:1;fill-rule:nonzero;stroke:none;stroke-width:0.999816"
         id="path26" />
      <path
         d="m 914.29045,1706.9258 c 0.3999,0.41 0.8797,0.614 1.4595,0.614 h 24.201 c 0.5598,0 1.0496,-0.204 1.4494,-0.614 0.3899,-0.386 0.5998,-0.879 0.5998,-1.437 v -115.2816 c 0,-0.559 -0.2099,-1.051 -0.5998,-1.442 -0.3998,-0.406 -0.8896,-0.609 -1.4494,-0.609 h -23.1914 c -1.1296,0 -1.9293,0.461 -2.3791,1.371 l -39.2055,65.1403 c -0.2299,0.348 -0.4598,0.481 -0.6797,0.43 -0.2399,-0.058 -0.3399,-0.32 -0.3399,-0.769 l 0.16,-64.1213 c 0,-0.559 -0.19,-1.051 -0.5898,-1.442 -0.3999,-0.406 -0.8797,-0.609 -1.4495,-0.609 h -24.211 c -0.5598,0 -1.0496,0.203 -1.4394,0.609 -0.3999,0.391 -0.5998,0.883 -0.5998,1.442 v 115.2816 c 0,0.558 0.1999,1.051 0.5998,1.437 0.3898,0.41 0.8796,0.614 1.4394,0.614 h 23.3513 c 1.1396,0 1.9393,-0.461 2.3891,-1.372 l 39.0455,-64.9684 c 0.22,-0.34 0.4499,-0.481 0.6798,-0.422 0.2299,0.051 0.3299,0.308 0.3299,0.762 l -0.16,63.9494 c 0,0.558 0.19,1.051 0.5898,1.437"
         style="fill:#21234f;fill-opacity:1;fill-rule:nonzero;stroke:none;stroke-width:0.999816"
         id="path28" />
      <path
         d="m 990.14225,1588.7652 c -0.3998,0.391 -0.5898,0.883 -0.5898,1.442 v 115.2816 c 0,0.558 0.19,1.051 0.5898,1.437 0.3899,0.41 0.8797,0.614 1.4495,0.614 h 24.21095 c 0.5598,0 1.0396,-0.204 1.4394,-0.614 0.3999,-0.386 0.5998,-0.879 0.5998,-1.437 v -115.2816 c 0,-0.559 -0.1999,-1.051 -0.5998,-1.442 -0.3998,-0.406 -0.8796,-0.609 -1.4394,-0.609 h -24.21095 c -0.5698,0 -1.0596,0.203 -1.4495,0.609"
         style="fill:#21234f;fill-opacity:1;fill-rule:nonzero;stroke:none;stroke-width:0.999816"
         id="path30" />
      <path
         d="m 1095.753,1589.8672 -34.4372,115.2816 -0.17,0.68 c 0,1.14 0.6198,1.711 1.8693,1.711 h 26.0903 c 1.2496,0 2.0393,-0.571 2.3791,-1.711 l 19.6028,-77.5904 c 0.1099,-0.34 0.2799,-0.512 0.5198,-0.512 0.2199,0 0.3898,0.172 0.4998,0.512 l 19.2628,77.5904 c 0.3399,1.14 1.1396,1.711 2.3891,1.711 h 25.5705 c 0.6798,0 1.1896,-0.243 1.5295,-0.692 0.3398,-0.449 0.3998,-1.019 0.1799,-1.699 l -34.947,-115.2816 c -0.3399,-1.141 -1.0896,-1.711 -2.2192,-1.711 h -25.9104 c -1.1395,0 -1.8693,0.57 -2.2091,1.711"
         style="fill:#21234f;fill-opacity:1;fill-rule:nonzero;stroke:none;stroke-width:0.999816"
         id="path32" />
      <path
         d="m 1287.7716,1683.9177 c -0.3999,-0.41 -0.8797,-0.601 -1.4495,-0.601 h -53.5201 c -0.5798,0 -0.8597,-0.2891 -0.8597,-0.8481 v -20.9801 c 0,-0.571 0.2799,-0.852 0.8597,-0.852 h 34.2473 c 0.5798,0 1.0596,-0.187 1.4595,-0.597 0.3998,-0.391 0.5897,-0.883 0.5897,-1.454 v -19.9491 c 0,-0.57 -0.1899,-1.039 -0.5897,-1.449 -0.3999,-0.398 -0.8797,-0.59 -1.4595,-0.59 h -34.2473 c -0.5798,0 -0.8597,-0.289 -0.8597,-0.859 v -22.5001 c 0,-0.582 0.2799,-0.86 0.8597,-0.86 h 53.5201 c 0.5698,0 1.0496,-0.191 1.4495,-0.601 0.3999,-0.399 0.5898,-0.879 0.5898,-1.449 v -20.1211 c 0,-0.559 -0.1899,-1.051 -0.5898,-1.442 -0.3999,-0.406 -0.8797,-0.609 -1.4495,-0.609 h -80.63 c -0.5698,0 -1.0596,0.203 -1.4495,0.609 -0.3998,0.391 -0.5897,0.883 -0.5897,1.442 v 115.2816 c 0,0.558 0.1899,1.051 0.5897,1.437 0.3899,0.41 0.8797,0.614 1.4495,0.614 h 80.63 c 0.5698,0 1.0496,-0.204 1.4495,-0.614 0.3999,-0.386 0.5898,-0.879 0.5898,-1.437 v -20.1211 c 0,-0.571 -0.1899,-1.059 -0.5898,-1.45"
         style="fill:#21234f;fill-opacity:1;fill-rule:nonzero;stroke:none;stroke-width:0.999816"
         id="path34" />
      <path
         d="m 1360.9844,1682.4686 v -24.2111 c 0,-0.582 0.2799,-0.859 0.8597,-0.859 h 18.9129 c 4.1985,0 7.6172,1.168 10.2362,3.5 2.5991,2.3201 3.9086,5.4301 3.9086,9.2891 0,3.98 -1.3095,7.16 -3.9086,9.551 -2.619,2.39 -6.0377,3.5781 -10.2362,3.5781 h -18.9129 c -0.5798,0 -0.8597,-0.2891 -0.8597,-0.8481 z m 33.2376,-92.7694 -20.1125,45.3592 c -0.2299,0.461 -0.5698,0.68 -1.0196,0.68 h -11.2458 c -0.5798,0 -0.8597,-0.281 -0.8597,-0.852 v -44.6792 c 0,-0.559 -0.1999,-1.051 -0.5998,-1.442 -0.3998,-0.406 -0.8797,-0.609 -1.4395,-0.609 h -24.211 c -0.5697,0 -1.0596,0.203 -1.4494,0.609 -0.3999,0.391 -0.5898,0.883 -0.5898,1.442 v 115.2816 c 0,0.558 0.1899,1.051 0.5898,1.437 0.3898,0.41 0.8797,0.614 1.4494,0.614 h 50.6212 c 7.5072,0 14.0948,-1.551 19.7827,-4.6141 5.6779,-3.066 10.0862,-7.406 13.2051,-13.047 3.1288,-5.621 4.6882,-12.0701 4.6882,-19.3511 0,-7.6211 -1.8793,-14.1991 -5.6279,-19.7811 -3.7486,-5.579 -8.9766,-9.6101 -15.6742,-12.1101 -0.5797,-0.219 -0.7397,-0.617 -0.5198,-1.187 l 22.5017,-46.9032 c 0.2299,-0.449 0.3399,-0.789 0.3399,-1.019 0,-0.91 -0.6198,-1.371 -1.8694,-1.371 h -25.5705 c -1.1395,0 -1.9292,0.519 -2.3891,1.543"
         style="fill:#21234f;fill-opacity:1;fill-rule:nonzero;stroke:none;stroke-width:0.999816"
         id="path36" />
      <path
         d="m 1486.7077,1591.3282 c -6.9874,3 -12.3854,7.32 -16.194,12.9491 -3.8086,5.629 -5.7079,12.129 -5.7079,19.5311 v 3.238 c 0,0.563 0.1899,1.051 0.5898,1.442 0.3998,0.398 0.8797,0.609 1.4494,0.609 h 23.7012 c 0.5598,0 1.0397,-0.211 1.4395,-0.609 0.3999,-0.391 0.5998,-0.879 0.5998,-1.442 v -2.05 c 0,-3.7501 1.8693,-7.0081 5.6179,-9.8091 3.7586,-2.781 8.8067,-4.18 15.1744,-4.18 5.0081,0 8.6967,1.09 11.0858,3.25 2.3891,2.149 3.5787,4.66 3.5787,7.5 0,2.2701 -0.7197,4.1211 -2.1292,5.5391 -1.4295,1.43 -3.3288,2.621 -5.7079,3.582 -2.3891,0.969 -6.0877,2.297 -11.0859,4.008 -0.6797,0.34 -1.3695,0.602 -2.0492,0.77 -0.6698,0.172 -1.3095,0.371 -1.8693,0.601 -7.3973,2.379 -13.8049,4.969 -19.2628,7.7581 -5.458,2.774 -10.1163,6.641 -13.9849,11.582 -3.8585,4.949 -5.7878,11.0591 -5.7878,18.3401 0,7.051 1.8493,13.2191 5.5379,18.5001 3.6887,5.289 8.8368,9.352 15.4243,12.1991 6.5876,2.84 14.0348,4.262 22.3317,4.262 8.7468,0 16.6138,-1.602 23.6112,-4.781 6.9874,-3.1801 12.4754,-7.6681 16.4439,-13.4691 3.9885,-5.789 5.9778,-12.4491 5.9778,-19.9491 v -2.383 c 0,-0.578 -0.2099,-1.059 -0.6098,-1.457 -0.3898,-0.402 -0.8796,-0.594 -1.4394,-0.594 h -23.6912 c -0.5798,0 -1.0596,0.192 -1.4595,0.594 -0.3998,0.398 -0.5898,0.879 -0.5898,1.457 v 1.191 c 0,3.969 -1.7593,7.5 -5.288,10.571 -3.5187,3.07 -8.2369,4.6091 -14.1447,4.6091 -4.4284,0 -7.9071,-0.922 -10.4062,-2.7381 -2.4991,-1.821 -3.7486,-4.371 -3.7486,-7.672 0,-2.5 0.7997,-4.578 2.3891,-6.219 1.5994,-1.66 4.0685,-3.18 7.4173,-4.609 3.3587,-1.4221 8.4868,-3.2741 15.4342,-5.5431 7.9371,-2.731 14.1448,-5.117 18.5731,-7.16 4.4284,-2.039 8.6068,-5.368 12.5254,-9.9691 3.9185,-4.61 5.8878,-10.668 5.8878,-18.168 0,-7.3911 -1.8793,-13.7501 -5.6279,-19.1021 -3.7586,-5.3511 -9.0067,-9.4611 -15.7742,-12.3591 -6.7574,-2.902 -14.6345,-4.352 -23.6012,-4.352 -9.4365,0 -17.6434,1.512 -24.6308,4.532"
         style="fill:#21234f;fill-opacity:1;fill-rule:nonzero;stroke:none;stroke-width:0.999816"
         id="path38" />
      <path
         d="m 1601.425,1588.7652 c -0.3998,0.391 -0.5898,0.883 -0.5898,1.442 v 115.2816 c 0,0.558 0.19,1.051 0.5898,1.437 0.3999,0.41 0.8797,0.614 1.4495,0.614 h 24.211 c 0.5698,0 1.0396,-0.204 1.4395,-0.614 0.3998,-0.386 0.5997,-0.879 0.5997,-1.437 v -115.2816 c 0,-0.559 -0.1999,-1.051 -0.5997,-1.442 -0.3999,-0.406 -0.8697,-0.609 -1.4395,-0.609 h -24.211 c -0.5698,0 -1.0496,0.203 -1.4495,0.609"
         style="fill:#21234f;fill-opacity:1;fill-rule:nonzero;stroke:none;stroke-width:0.999816"
         id="path40" />
      <path
         d="m 1764.3845,1706.9258 c 0.3898,-0.386 0.5997,-0.879 0.5997,-1.437 v -20.3011 c 0,-0.559 -0.2099,-1.051 -0.5997,-1.441 -0.3999,-0.399 -0.8897,-0.5981 -1.4495,-0.5981 h -29.8289 c -0.5698,0 -0.8597,-0.281 -0.8597,-0.852 v -92.0894 c 0,-0.559 -0.1899,-1.051 -0.5898,-1.442 -0.3998,-0.406 -0.8796,-0.609 -1.4494,-0.609 h -24.211 c -0.5598,0 -1.0496,0.203 -1.4395,0.609 -0.3999,0.391 -0.5998,0.883 -0.5998,1.442 v 92.0894 c 0,0.571 -0.2899,0.852 -0.8597,0.852 h -28.7993 c -0.5697,0 -1.0596,0.1991 -1.4494,0.5981 -0.3999,0.39 -0.5998,0.882 -0.5998,1.441 v 20.3011 c 0,0.558 0.1999,1.051 0.5998,1.437 0.3898,0.41 0.8797,0.614 1.4494,0.614 h 88.6371 c 0.5598,0 1.0496,-0.204 1.4495,-0.614"
         style="fill:#21234f;fill-opacity:1;fill-rule:nonzero;stroke:none;stroke-width:0.999816"
         id="path42" />
      <path
         d="m 1892.067,1683.9177 c -0.3998,-0.41 -0.8797,-0.601 -1.4494,-0.601 h -53.5202 c -0.5797,0 -0.8596,-0.2891 -0.8596,-0.8481 v -20.9801 c 0,-0.571 0.2799,-0.852 0.8596,-0.852 h 34.2473 c 0.5798,0 1.0596,-0.187 1.4595,-0.597 0.3998,-0.391 0.5997,-0.883 0.5997,-1.454 v -19.9491 c 0,-0.57 -0.1999,-1.039 -0.5997,-1.449 -0.3999,-0.398 -0.8797,-0.59 -1.4595,-0.59 h -34.2473 c -0.5797,0 -0.8596,-0.289 -0.8596,-0.859 v -22.5001 c 0,-0.582 0.2799,-0.86 0.8596,-0.86 h 53.5202 c 0.5697,0 1.0496,-0.191 1.4494,-0.601 0.3999,-0.399 0.5898,-0.879 0.5898,-1.449 v -20.1211 c 0,-0.559 -0.1899,-1.051 -0.5898,-1.442 -0.3998,-0.406 -0.8797,-0.609 -1.4494,-0.609 h -80.6301 c -0.5698,0 -1.0596,0.203 -1.4494,0.609 -0.3999,0.391 -0.5898,0.883 -0.5898,1.442 v 115.2816 c 0,0.558 0.1899,1.051 0.5898,1.437 0.3898,0.41 0.8796,0.614 1.4494,0.614 h 80.6301 c 0.5697,0 1.0496,-0.204 1.4494,-0.614 0.3999,-0.386 0.5898,-0.879 0.5898,-1.437 v -20.1211 c 0,-0.571 -0.1899,-1.059 -0.5898,-1.45"
         style="fill:#21234f;fill-opacity:1;fill-rule:nonzero;stroke:none;stroke-width:0.999816"
         id="path44" />
      <path
         d="m 2024.6777,1706.9258 c 0.3899,-0.386 0.5998,-0.879 0.5998,-1.437 v -20.3011 c 0,-0.559 -0.2099,-1.051 -0.5998,-1.441 -0.3998,-0.399 -0.8896,-0.5981 -1.4494,-0.5981 h -29.8289 c -0.5698,0 -0.8597,-0.281 -0.8597,-0.852 v -92.0894 c 0,-0.559 -0.19,-1.051 -0.5898,-1.442 -0.3999,-0.406 -0.8797,-0.609 -1.4495,-0.609 h -24.211 c -0.5598,0 -1.0496,0.203 -1.4394,0.609 -0.3999,0.391 -0.5998,0.883 -0.5998,1.442 v 92.0894 c 0,0.571 -0.2899,0.852 -0.8597,0.852 h -28.7993 c -0.5698,0 -1.0596,0.1991 -1.4495,0.5981 -0.3998,0.39 -0.5897,0.882 -0.5897,1.441 v 20.3011 c 0,0.558 0.1899,1.051 0.5897,1.437 0.3899,0.41 0.8797,0.614 1.4495,0.614 h 88.6371 c 0.5598,0 1.0496,-0.204 1.4494,-0.614"
         style="fill:#21234f;fill-opacity:1;fill-rule:nonzero;stroke:none;stroke-width:0.999816"
         id="path46" />
      <path
         d="m 512.02995,1587.8862 c -13.7849,6.281 -27.6397,8.891 -51.171,25.5901 -59.8677,42.4812 -86.8077,91.6725 -48.472,195.762 22.1218,60.0403 31.1585,104.2205 29.8589,162.4808 -0.7397,0.58 -3.6586,2.5 -4.3483,3.07 -11.9256,-72.4004 -31.8782,-108.1006 -76.7815,-181.0309 -101.6322,-165.1098 -6.0778,-266.1733 39.0855,-302.6415 41.7944,20.0901 85.5382,54.9293 111.8284,96.7695"
         style="fill:#21234f;fill-opacity:1;fill-rule:nonzero;stroke:none;stroke-width:0.999816"
         id="path48" />
      <path
         d="m 312.98395,1799.4082 c 70.8736,89.5805 99.9128,127.0706 106.1705,187.2209 -0.7997,0.44 -2.9689,1.6 -3.7686,2.04 -19.1828,-72.6803 -58.9081,-104.4505 -177.484,-186.5009 -123.2942,-85.3204 -118.9258,-213.833 -85.3283,-307.6105 38.1258,-19.5701 81.2598,-30.6801 127.0328,-30.6801 9.7464,0 19.3828,0.508 28.8892,1.5 -84.7984,135.6886 -78.1709,229.5601 4.4884,334.0306"
         style="fill:#21234f;fill-opacity:1;fill-rule:nonzero;stroke:none;stroke-width:0.999816"
         id="path50" />
      <path
         d="m 264.69185,1867.4285 c 80.4101,39.8202 116.0569,79.5904 131.821,130.9107 -0.6897,0.34 -3.7486,1.7 -3.7686,1.66 -45.543,-78.0604 -102.072,-83.8104 -230.7042,-105.3105 -73.872604,-12.3601 -114.067604,-44.6302 -155.5122042,-90.1205 -3.8386,-16.32 -6.55759999,-42.4202 -6.52759999081,-59.7703 C 0.10024581,1677.8166 22.961746,1614.5393 64.146446,1565.4681 c 2.3091,209.67 100.102804,252.1902 200.545404,301.9604"
         style="fill:#21234f;fill-opacity:1;fill-rule:nonzero;stroke:none;stroke-width:0.999816"
         id="path52" />
    </g>
  </g>
</svg>
