<?xml version="1.0" encoding="UTF-8" standalone="no"?>
<svg
   xmlns:dc="http://purl.org/dc/elements/1.1/"
   xmlns:cc="http://creativecommons.org/ns#"
   xmlns:rdf="http://www.w3.org/1999/02/22-rdf-syntax-ns#"
   xmlns:svg="http://www.w3.org/2000/svg"
   xmlns="http://www.w3.org/2000/svg"
   xmlns:sodipodi="http://sodipodi.sourceforge.net/DTD/sodipodi-0.dtd"
   xmlns:inkscape="http://www.inkscape.org/namespaces/inkscape"
   width="2279.4099"
   height="959.49701"
   viewBox="0 0 175.74797 73.979522"
   version="1.1"
   id="svg14"
   sodipodi:docname="singapore-management-university.svg"
   inkscape:version="1.0.1 (3bc2e813f5, 2020-09-07)">
  <metadata
     id="metadata20">
    <rdf:RDF>
      <cc:Work
         rdf:about="">
        <dc:format>image/svg+xml</dc:format>
        <dc:type
           rdf:resource="http://purl.org/dc/dcmitype/StillImage" />
        <dc:title></dc:title>
      </cc:Work>
    </rdf:RDF>
  </metadata>
  <defs
     id="defs18" />
  <sodipodi:namedview
     pagecolor="#ffffff"
     bordercolor="#666666"
     borderopacity="1"
     objecttolerance="10"
     gridtolerance="10"
     guidetolerance="10"
     inkscape:pageopacity="0"
     inkscape:pageshadow="2"
     inkscape:window-width="2560"
     inkscape:window-height="1351"
     id="namedview16"
     showgrid="false"
     inkscape:zoom="0.28510545"
     inkscape:cx="2105.0673"
     inkscape:cy="1588.0336"
     inkscape:window-x="1431"
     inkscape:window-y="427"
     inkscape:window-maximized="1"
     inkscape:current-layer="g12" />
  <g
     fill-rule="evenodd"
     clip-rule="evenodd"
     id="g12">
    <path
       d="m 26.518,48.604979 c 0,0 -3.063,-0.011 -4.563,-0.739 -2.71,-1.311 -3.231,-5.34 -3.578,-8.667993 -0.037,-0.366 -2.562,-1.165999 -3.766,-2.266999 -1.956,-1.784999 -1.657,-7.366997 -1.657,-7.725997 0,-0.359 -3.161,-1.909 -3.161,-5.365998 0,-1.459 0.023,-9.624997 0.023,-9.624997 C 7.753,11.654996 6.758,11.491996 4.84,12.188996 2.796,12.813995 2.153,14.306995 0.027,14.606995 L 0,39.407986 c 0,7.498993 1.377,14.842993 9.06,20.609993 7.125,5.34 12.642,5.208 17.451,13.96099 0.082,0.142 -0.005,-27.43699 0.007,-25.37399 z M 56.073,22.449992 c -0.197,-0.08 -0.234,-0.134 -0.234,-0.38 0,-0.615 0.049,-1.284999 0.062,-1.462999 0.012,-0.168 0.049,-0.291 0.146,-0.291 0.112,0 0.124,0.101 0.124,0.189 0,0.146 0.049,0.38 0.111,0.57 0.27,0.825999 0.995,1.127999 1.756,1.127999 1.106,0 1.646,-0.681 1.646,-1.273999 0,-0.546 -0.185,-1.071 -1.205,-1.787 l -0.564,-0.401 c -1.352,-0.959999 -1.819,-1.741999 -1.819,-2.645999 0,-1.228999 1.131,-2.110999 2.839,-2.110999 0.798,0 1.315,0.112 1.635,0.19 0.11,0.022 0.17,0.056 0.17,0.134 0,0.146 -0.049,0.469 -0.049,1.338999 0,0.246 -0.036,0.336 -0.135,0.336 -0.086,0 -0.123,-0.067 -0.123,-0.201 0,-0.101 -0.061,-0.446999 -0.319,-0.736999 -0.185,-0.213 -0.541,-0.549 -1.34,-0.549 -0.909,0 -1.461,0.481 -1.461,1.149999 0,0.515 0.283,0.905 1.303,1.609 l 0.344,0.235 c 1.473,1.038999 2.014,1.786999 2.014,2.847999 0,0.648 -0.27,1.417999 -1.154,1.942999 -0.616,0.357 -1.303,0.458 -1.954,0.458 -0.712,0.001 -1.266,-0.077 -1.793,-0.289 z m 10.036,-5.070998 c 0,-1.697 0,-2.010999 -0.024,-2.367999 -0.025,-0.379 -0.148,-0.57 -0.419,-0.625 a 1.925,1.9249993 0 0 0 -0.441,-0.043 c -0.123,0 -0.197,-0.022 -0.197,-0.112 0,-0.067 0.1,-0.09 0.295,-0.09 0.467,0 1.242,0.034 1.598,0.034 0.307,0 1.032,-0.034 1.499,-0.034 0.16,0 0.258,0.022 0.258,0.09 0,0.09 -0.074,0.112 -0.196,0.112 a 2.31,2.3099992 0 0 0 -0.369,0.033 c -0.333,0.056 -0.43,0.246 -0.456,0.636 -0.023,0.357 -0.023,0.670999 -0.023,2.367999 v 1.964999 c 0,1.085 0,1.966999 0.049,2.447999 0.037,0.301 0.123,0.502 0.491,0.546 0.172,0.022 0.443,0.045 0.627,0.045 0.135,0 0.197,0.033 0.197,0.09 0,0.078 -0.1,0.111 -0.234,0.111 -0.811,0 -1.584,-0.033 -1.917,-0.033 -0.282,0 -1.057,0.033 -1.548,0.033 -0.16,0 -0.246,-0.033 -0.246,-0.111 0,-0.057 0.049,-0.09 0.197,-0.09 0.184,0 0.332,-0.022 0.442,-0.045 0.246,-0.044 0.32,-0.234 0.355,-0.559 0.062,-0.468 0.062,-1.349999 0.062,-2.434999 z m 8.452,3.685999 c 0.024,0.869999 0.184,1.160999 0.43,1.239999 0.209,0.066 0.442,0.078 0.639,0.078 0.135,0 0.209,0.022 0.209,0.09 0,0.089 -0.111,0.111 -0.283,0.111 -0.799,0 -1.29,-0.033 -1.524,-0.033 -0.11,0 -0.688,0.033 -1.327,0.033 -0.16,0 -0.27,-0.01 -0.27,-0.111 0,-0.067 0.074,-0.09 0.196,-0.09 0.16,0 0.381,-0.012 0.553,-0.055 0.32,-0.09 0.369,-0.415 0.381,-1.384999 l 0.111,-6.611998 c 0,-0.224 0.037,-0.38 0.16,-0.38 0.135,0 0.245,0.146 0.454,0.347 a 151.86,151.85995 0 0 0 3.809,3.584999 c 0.836,0.758999 2.495,2.366999 2.703,2.546999 h 0.062 l -0.123,-5.015998 c -0.012,-0.681 -0.123,-0.894 -0.418,-1.005 -0.184,-0.066 -0.479,-0.066 -0.65,-0.066 -0.147,0 -0.197,-0.034 -0.197,-0.101 0,-0.09 0.136,-0.102 0.32,-0.102 0.639,0 1.227,0.034 1.487,0.034 0.135,0 0.602,-0.034 1.203,-0.034 0.16,0 0.283,0.012 0.283,0.102 0,0.066 -0.074,0.101 -0.222,0.101 -0.122,0 -0.221,0 -0.368,0.033 -0.344,0.088 -0.443,0.324 -0.455,0.948 l -0.135,7.047997 c 0,0.246 -0.049,0.347 -0.16,0.347 -0.135,0 -0.282,-0.123 -0.418,-0.245 -0.774,-0.67 -2.347,-2.133999 -3.625,-3.283999 -1.338,-1.206999 -2.703,-2.601999 -2.924,-2.814999 h -0.036 z m 20.555,0.769999 c 0,0.302 -0.012,0.324 -0.158,0.403 -0.801,0.379 -2.006,0.502 -2.963,0.502 -3.01,0 -5.677,-1.295 -5.677,-4.378998 a 4.102,4.1019986 0 0 1 2.14,-3.651999 c 1.178,-0.648 2.272,-0.726 3.303,-0.726 0.85,0 1.93,0.134 2.176,0.179 0.258,0.045 0.689,0.112 0.971,0.123 0.146,0.012 0.172,0.057 0.172,0.133 0,0.123 -0.086,0.437 -0.086,1.831999 0,0.178 -0.035,0.235 -0.135,0.235 -0.086,0 -0.109,-0.057 -0.123,-0.146 -0.035,-0.256 -0.098,-0.614 -0.418,-0.926999 -0.367,-0.357 -1.352,-0.872 -2.74,-0.872 -0.676,0 -1.572,0.045 -2.432,0.693 -0.688,0.524999 -1.131,1.362999 -1.131,2.736999 0,2.400999 1.684,4.198998 4.276,4.198998 0.32,0 0.75,0 1.045,-0.123 0.184,-0.078 0.234,-0.224 0.234,-0.414 v -1.048999 c 0,-0.558 0,-0.982 -0.014,-1.318 -0.012,-0.38 -0.123,-0.558 -0.527,-0.637 a 2.849,2.848999 0 0 0 -0.48,-0.033 c -0.111,0 -0.186,-0.023 -0.186,-0.09 0,-0.09 0.088,-0.111999 0.26,-0.111999 0.639,0 1.412,0.035 1.781,0.035 0.381,0 1.031,-0.035 1.439,-0.035 0.158,0 0.244,0.022 0.244,0.111999 0,0.067 -0.074,0.09 -0.16,0.09 -0.098,0 -0.184,0.01 -0.332,0.033 -0.33,0.056 -0.453,0.247 -0.465,0.637 -0.014,0.336 -0.014,0.782 -0.014,1.341 z m 6.377,-2.724999 c -0.049,0 -0.062,-0.034 -0.049,-0.078 l 1.129,-2.746999 c 0.014,-0.045 0.037,-0.102 0.074,-0.102 0.037,0 0.049,0.057 0.062,0.102 l 1.105,2.757999 c 0.012,0.033 0,0.067 -0.062,0.067 z m 2.494,0.559 c 0.061,0 0.098,0.022 0.123,0.078 l 0.982,2.368999 c 0.062,0.132 -0.023,0.234 -0.109,0.255 -0.123,0.012 -0.174,0.034 -0.174,0.102 0,0.078 0.148,0.078 0.371,0.089 0.982,0.022 1.879,0.022 2.32,0.022 0.455,0 0.566,-0.022 0.566,-0.111 0,-0.079 -0.062,-0.09 -0.16,-0.09 a 3.04,3.0399989 0 0 1 -0.518,-0.045 c -0.256,-0.056 -0.613,-0.211 -1.08,-1.216999 -0.787,-1.698 -2.752,-6.255998 -3.047,-6.868998 -0.123,-0.257 -0.197,-0.357 -0.309,-0.357 -0.123,0 -0.195,0.122 -0.344,0.447 l -3.082,7.013997 c -0.248,0.558 -0.48,0.938 -1.045,1.005 a 4.159,4.1589985 0 0 1 -0.381,0.022 c -0.1,0 -0.148,0.022 -0.148,0.09 0,0.089 0.074,0.111 0.234,0.111 0.639,0 1.314,-0.033 1.449,-0.033 0.383,0 0.91,0.033 1.303,0.033 0.135,0 0.209,-0.022 0.209,-0.111 0,-0.067 -0.037,-0.09 -0.184,-0.09 h -0.186 c -0.379,0 -0.49,-0.145 -0.49,-0.347 0,-0.134 0.061,-0.402 0.184,-0.681 l 0.662,-1.598999 c 0.025,-0.065 0.051,-0.088 0.111,-0.088 h 2.743 z m 7.582,-2.289999 c 0,-1.697 0,-2.010999 -0.025,-2.367999 -0.025,-0.379 -0.123,-0.558 -0.527,-0.636 a 2.849,2.848999 0 0 0 -0.48,-0.033 c -0.135,0 -0.209,-0.022 -0.209,-0.101 0,-0.079 0.086,-0.102 0.27,-0.102 0.652,0 1.426,0.034 1.77,0.034 0.504,0 1.217,-0.034 1.781,-0.034 1.537,0 2.09,0.47 2.287,0.637 0.27,0.234 0.613,0.737 0.613,1.329999 0,1.585 -1.277,2.701999 -3.021,2.701999 -0.062,0 -0.199,0 -0.26,-0.011 -0.061,-0.011 -0.146,-0.022 -0.146,-0.102 0,-0.089 0.086,-0.122 0.344,-0.122 0.688,0 1.646,-0.703999 1.646,-1.841999 0,-0.369 -0.037,-1.118 -0.725,-1.675999 a 1.936,1.9359993 0 0 0 -1.229,-0.435 c -0.184,0 -0.369,0.01 -0.48,0.043 -0.062,0.023 -0.098,0.09 -0.098,0.213 v 4.466998 c 0,1.028 0,1.910999 0.062,2.390999 0.035,0.313 0.109,0.559 0.479,0.603 0.172,0.022 0.441,0.045 0.627,0.045 0.135,0 0.195,0.033 0.195,0.09 0,0.078 -0.098,0.111 -0.234,0.111 -0.809,0 -1.584,-0.033 -1.902,-0.033 -0.283,0 -1.057,0.033 -1.549,0.033 -0.16,0 -0.244,-0.033 -0.244,-0.111 0,-0.057 0.049,-0.09 0.195,-0.09 0.186,0 0.332,-0.022 0.443,-0.045 0.246,-0.044 0.307,-0.29 0.355,-0.613 0.062,-0.47 0.062,-1.351999 0.062,-2.379999 z m 14.385,4.802998 c -2.359,0 -3.771,-1.842999 -3.771,-4.166998 0,-2.780999 1.609,-3.495999 3.021,-3.495999 2.016,0 3.6,1.552999 3.6,4.054998 0,3.227999 -1.991,3.607999 -2.85,3.607999 z m -0.518,0.558 c 3.121,0 5.088,-2.020999 5.088,-4.579998 0,-2.557 -1.904,-4.176999 -4.965,-4.176999 -3.686,0 -5.072,2.467999 -5.072,4.377999 0,1.977999 1.424,4.378998 4.949,4.378998 z m 11.319,-7.874997 c 0,-0.088 0.023,-0.133 0.109,-0.156 0.125,-0.033 0.346,-0.045 0.65,-0.045 0.727,0 1.881,0.459 1.881,2.044999 0,0.916 -0.357,1.429 -0.725,1.674 -0.223,0.145999 -0.381,0.189999 -0.873,0.189999 -0.307,0 -0.676,-0.034 -0.934,-0.112 -0.086,-0.033 -0.109,-0.078 -0.109,-0.200999 v -3.394999 z m -1.451,4.478998 c 0,1.028 0,1.910999 -0.061,2.379999 -0.051,0.324 -0.111,0.569 -0.357,0.613 a 2.201,2.2009992 0 0 1 -0.441,0.045 c -0.148,0 -0.197,0.033 -0.197,0.09 0,0.078 0.086,0.111 0.246,0.111 0.492,0 1.266,-0.033 1.5,-0.033 0.184,0 1.094,0.033 1.805,0.033 0.16,0 0.246,-0.033 0.246,-0.111 0,-0.057 -0.049,-0.09 -0.148,-0.09 -0.146,0 -0.416,-0.022 -0.602,-0.045 -0.367,-0.044 -0.441,-0.29 -0.479,-0.613 -0.061,-0.47 -0.061,-1.351999 -0.061,-2.390999 v -0.158 c 0,-0.066 0.037,-0.088 0.098,-0.088 l 1.068,0.022 c 0.086,0 0.16,0.012 0.223,0.078 0.16,0.168 0.723,0.927 1.215,1.541 0.688,0.858999 1.154,1.385999 1.684,1.641999 0.32,0.157 0.627,0.213 1.314,0.213 h 1.168 c 0.146,0 0.232,-0.022 0.232,-0.111 0,-0.057 -0.049,-0.09 -0.146,-0.09 -0.097,0 -0.209,-0.012 -0.344,-0.033 -0.184,-0.033 -0.688,-0.112 -1.377,-0.761 -0.725,-0.690999 -1.572,-1.684999 -2.666,-2.936999 1.24,-0.915999 1.621,-1.675999 1.621,-2.501999 0,-0.746999 -0.492,-1.316999 -0.836,-1.528999 -0.662,-0.414 -1.484,-0.481 -2.26,-0.481 -0.379,0 -1.314,0.034 -1.732,0.034 -0.258,0 -1.031,-0.034 -1.684,-0.034 -0.186,0 -0.27,0.022 -0.27,0.102 0,0.078 0.074,0.101 0.207,0.101 a 2.8,2.799999 0 0 1 0.48,0.033 c 0.404,0.078 0.504,0.256 0.527,0.636 0.025,0.357 0.025,0.670999 0.025,2.367999 v 1.964999 z m 11.488,-1.964999 c 0,-1.697 0,-2.010999 -0.025,-2.367999 -0.025,-0.379 -0.123,-0.558 -0.527,-0.636 a 2.832,2.831999 0 0 0 -0.48,-0.033 c -0.135,0 -0.207,-0.022 -0.207,-0.101 0,-0.079 0.084,-0.102 0.27,-0.102 0.65,0 1.426,0.034 1.768,0.034 0.393,0 2.84,0 3.072,-0.012 0.234,-0.022 0.43,-0.045 0.529,-0.066 0.061,-0.012 0.135,-0.045 0.195,-0.045 0.062,0 0.076,0.045 0.076,0.101 0,0.078 -0.062,0.212 -0.1,0.726 -0.012,0.111 -0.037,0.603 -0.061,0.736999 -0.014,0.056 -0.037,0.123 -0.123,0.123 -0.088,0 -0.111,-0.056 -0.111,-0.156 0,-0.08 -0.012,-0.268999 -0.074,-0.402999 -0.086,-0.201 -0.209,-0.336 -0.822,-0.402 -0.211,-0.022 -1.5,-0.044 -1.746,-0.044 -0.061,0 -0.086,0.033 -0.086,0.11 v 2.826999 c 0,0.078 0.012,0.123 0.086,0.123 0.27,0 1.684,0 1.967,-0.022 0.293,-0.022 0.479,-0.057 0.59,-0.168 0.086,-0.088 0.135,-0.145 0.197,-0.145 0.049,0 0.086,0.022 0.086,0.09 0,0.066 -0.062,0.246 -0.1,0.814 -0.023,0.223999 -0.049,0.670999 -0.049,0.748999 0,0.089 0,0.212 -0.111,0.212 -0.086,0 -0.109,-0.044 -0.109,-0.101 -0.014,-0.111 -0.014,-0.256 -0.051,-0.402 -0.061,-0.222 -0.232,-0.39 -0.688,-0.435999 -0.232,-0.022 -1.449,-0.033 -1.744,-0.033 -0.062,0 -0.074,0.043 -0.074,0.110999 v 0.882 c 0,0.38 -0.012,1.408 0,1.732 0.025,0.770999 0.223,0.937999 1.475,0.937999 0.32,0 0.836,0 1.154,-0.133 0.32,-0.134 0.469,-0.369 0.555,-0.826999 0.023,-0.123 0.049,-0.167 0.135,-0.167 0.098,0 0.098,0.09 0.098,0.202 a 7.94,7.9399972 0 0 1 -0.16,1.239999 c -0.086,0.29 -0.195,0.29 -0.662,0.29 -1.857,0 -2.68,-0.066 -3.404,-0.066 -0.281,0 -1.057,0.033 -1.547,0.033 -0.16,0 -0.246,-0.033 -0.246,-0.111 0,-0.057 0.049,-0.09 0.197,-0.09 0.184,0 0.33,-0.022 0.441,-0.045 0.244,-0.044 0.307,-0.29 0.355,-0.613 0.062,-0.47 0.062,-1.351999 0.062,-2.379999 V 17.378994 Z M 57.203,31.636989 c 0.037,-0.191 0.111,-0.292 0.209,-0.292 0.099,0 0.172,0.056 0.332,0.347 l 3.354,6.300998 3.341,-6.377998 c 0.086,-0.179 0.16,-0.269 0.271,-0.269 0.111,0 0.184,0.113 0.221,0.347 l 1.118,6.903997 c 0.111,0.703 0.234,1.027 0.604,1.128 0.355,0.101 0.602,0.11 0.76,0.11 0.111,0 0.197,0.013 0.197,0.079 0,0.09 -0.146,0.122 -0.32,0.122 a 73.43,73.429974 0 0 1 -2.494,-0.065 c -0.283,-0.022 -0.357,-0.057 -0.357,-0.123 0,-0.057 0.05,-0.09 0.136,-0.123 0.073,-0.022 0.11,-0.168 0.061,-0.481 L 63.9,34.329988 h -0.049 l -2.679,5.070998 c -0.283,0.525 -0.346,0.626 -0.455,0.626 -0.111,0 -0.233,-0.224 -0.43,-0.559 -0.295,-0.515 -1.266,-2.223999 -1.415,-2.535999 -0.109,-0.234 -0.846,-1.642999 -1.276,-2.478999 h -0.051 l -0.638,4.444998 a 3.956,3.9559986 0 0 0 -0.038,0.525 c 0,0.212 0.16,0.312 0.369,0.357 0.221,0.045 0.393,0.055 0.517,0.055 0.098,0 0.185,0.023 0.185,0.079 0,0.102 -0.111,0.122 -0.295,0.122 -0.517,0 -1.07,-0.032 -1.292,-0.032 -0.232,0 -0.823,0.032 -1.215,0.032 -0.123,0 -0.221,-0.021 -0.221,-0.122 0,-0.056 0.072,-0.079 0.195,-0.079 0.099,0 0.184,0 0.369,-0.032 0.344,-0.067 0.441,-0.503 0.504,-0.883 z m 15.43,4.925998 c -0.049,0 -0.062,-0.033 -0.049,-0.079 l 1.129,-2.748999 c 0.013,-0.044 0.037,-0.1 0.074,-0.1 0.036,0 0.049,0.056 0.061,0.1 l 1.106,2.758999 c 0.013,0.035 0,0.068 -0.061,0.068 h -2.26 z m 2.493,0.558 c 0.062,0 0.099,0.022 0.123,0.078 l 0.982,2.368999 c 0.062,0.134 -0.023,0.234 -0.109,0.257 -0.123,0.01 -0.173,0.033 -0.173,0.101 0,0.078 0.147,0.078 0.368,0.09 0.983,0.021 1.881,0.021 2.323,0.021 0.455,0 0.564,-0.021 0.564,-0.11 0,-0.078 -0.061,-0.091 -0.16,-0.091 -0.146,0 -0.331,-0.01 -0.515,-0.044 -0.259,-0.056 -0.615,-0.212 -1.082,-1.218 -0.787,-1.697999 -2.752,-6.254997 -3.048,-6.868997 -0.121,-0.258 -0.195,-0.359 -0.307,-0.359 -0.123,0 -0.195,0.123 -0.344,0.447 l -3.083,7.014997 c -0.246,0.56 -0.48,0.939 -1.045,1.007 -0.098,0.011 -0.27,0.021 -0.381,0.021 -0.098,0 -0.148,0.023 -0.148,0.091 0,0.09 0.074,0.11 0.234,0.11 0.639,0 1.315,-0.032 1.45,-0.032 0.381,0 0.909,0.032 1.303,0.032 0.135,0 0.209,-0.021 0.209,-0.11 0,-0.067 -0.037,-0.091 -0.186,-0.091 h -0.184 c -0.381,0 -0.491,-0.145 -0.491,-0.346 0,-0.134 0.061,-0.401 0.184,-0.682 l 0.665,-1.596999 c 0.025,-0.067 0.05,-0.09 0.111,-0.09 z m 8.269,1.396999 c 0.025,0.87 0.186,1.161 0.431,1.239 0.208,0.067 0.442,0.077 0.639,0.077 0.135,0 0.209,0.023 0.209,0.091 0,0.09 -0.111,0.11 -0.283,0.11 -0.799,0 -1.29,-0.032 -1.523,-0.032 -0.11,0 -0.688,0.032 -1.327,0.032 -0.16,0 -0.271,-0.01 -0.271,-0.11 0,-0.067 0.074,-0.091 0.197,-0.091 0.16,0 0.381,-0.01 0.553,-0.055 0.32,-0.09 0.369,-0.413 0.381,-1.386 l 0.111,-6.612997 c 0,-0.222 0.036,-0.38 0.159,-0.38 0.136,0 0.246,0.146 0.455,0.347 0.148,0.146 2.015,1.966999 3.808,3.585999 0.836,0.759999 2.496,2.368999 2.705,2.545999 H 89.7 l -0.121,-5.013999 c -0.014,-0.680999 -0.123,-0.893999 -0.42,-1.004999 -0.184,-0.067 -0.479,-0.067 -0.65,-0.067 -0.147,0 -0.197,-0.033 -0.197,-0.101 0,-0.088 0.136,-0.101 0.32,-0.101 0.639,0 1.229,0.035 1.486,0.035 0.137,0 0.604,-0.035 1.205,-0.035 0.16,0 0.281,0.012 0.281,0.101 0,0.068 -0.072,0.101 -0.221,0.101 -0.123,0 -0.221,0 -0.367,0.035 -0.346,0.088 -0.443,0.323 -0.455,0.947999 l -0.135,7.048998 c 0,0.244 -0.049,0.347 -0.16,0.347 -0.137,0 -0.283,-0.123 -0.418,-0.246 -0.775,-0.671 -2.348,-2.133999 -3.625,-3.283999 -1.339,-1.207 -2.704,-2.603999 -2.925,-2.814999 H 83.261 Z M 97.29,36.562987 c -0.049,0 -0.062,-0.033 -0.049,-0.079 l 1.131,-2.748999 c 0.012,-0.044 0.035,-0.1 0.072,-0.1 0.037,0 0.051,0.056 0.062,0.1 l 1.104,2.758999 c 0.014,0.035 0,0.068 -0.061,0.068 H 97.29 Z m 2.494,0.558 c 0.061,0 0.098,0.022 0.123,0.078 l 0.982,2.368999 a 0.178,0.17799994 0 0 1 -0.111,0.257 c -0.121,0.01 -0.172,0.033 -0.172,0.101 0,0.078 0.146,0.078 0.369,0.09 0.982,0.021 1.879,0.021 2.322,0.021 0.455,0 0.566,-0.021 0.566,-0.11 0,-0.078 -0.062,-0.091 -0.16,-0.091 -0.148,0 -0.332,-0.01 -0.516,-0.044 -0.26,-0.056 -0.617,-0.212 -1.082,-1.218 -0.787,-1.697999 -2.754,-6.254997 -3.049,-6.868997 -0.121,-0.258 -0.195,-0.359 -0.305,-0.359 -0.123,0 -0.197,0.123 -0.346,0.447 l -3.084,7.014997 c -0.244,0.56 -0.479,0.939 -1.045,1.007 -0.098,0.011 -0.27,0.021 -0.381,0.021 -0.098,0 -0.146,0.023 -0.146,0.091 0,0.09 0.074,0.11 0.234,0.11 0.637,0 1.314,-0.032 1.447,-0.032 0.381,0 0.91,0.032 1.305,0.032 0.135,0 0.209,-0.021 0.209,-0.11 0,-0.067 -0.037,-0.091 -0.186,-0.091 h -0.184 c -0.381,0 -0.492,-0.145 -0.492,-0.346 0,-0.134 0.062,-0.401 0.186,-0.682 l 0.664,-1.596999 c 0.023,-0.067 0.047,-0.09 0.109,-0.09 z m 15.039,2.167999 c 0,0.301 -0.014,0.323 -0.16,0.401 -0.799,0.379 -2.004,0.504 -2.961,0.504 -3.01,0 -5.678,-1.297 -5.678,-4.379999 a 4.102,4.1019986 0 0 1 2.139,-3.651998 c 1.18,-0.648 2.273,-0.726 3.305,-0.726 0.848,0 1.93,0.135 2.176,0.179 0.258,0.044 0.688,0.112 0.971,0.123 0.146,0.011 0.172,0.056 0.172,0.135 0,0.122 -0.086,0.435 -0.086,1.830999 0,0.179 -0.037,0.234 -0.135,0.234 -0.086,0 -0.111,-0.056 -0.123,-0.145 -0.037,-0.258 -0.098,-0.615 -0.418,-0.927 -0.369,-0.356999 -1.354,-0.871999 -2.74,-0.871999 -0.676,0 -1.572,0.045 -2.432,0.692999 -0.689,0.525 -1.131,1.362 -1.131,2.736999 0,2.402 1.682,4.199999 4.275,4.199999 0.318,0 0.748,0 1.043,-0.123 0.186,-0.078 0.234,-0.224 0.234,-0.413 v -1.049999 c 0,-0.559 0,-0.984 -0.014,-1.319 -0.01,-0.379 -0.121,-0.558 -0.527,-0.637 a 2.923,2.922999 0 0 0 -0.48,-0.033 c -0.109,0 -0.184,-0.022 -0.184,-0.088 0,-0.089 0.086,-0.112 0.26,-0.112 0.639,0 1.412,0.034 1.781,0.034 0.381,0 1.031,-0.034 1.438,-0.034 0.16,0 0.246,0.023 0.246,0.112 0,0.066 -0.074,0.088 -0.16,0.088 -0.1,0 -0.184,0.012 -0.332,0.033 -0.332,0.057 -0.455,0.248 -0.467,0.637 -0.012,0.335 -0.012,0.782 -0.012,1.342 z m 5.639,-4.457998 c 0,-1.697 0,-2.011 -0.023,-2.368999 -0.025,-0.378 -0.123,-0.557 -0.529,-0.635 a 2.685,2.6849991 0 0 0 -0.479,-0.035 c -0.135,0 -0.209,-0.022 -0.209,-0.101 0,-0.078 0.086,-0.101 0.27,-0.101 0.652,0 1.426,0.035 1.77,0.035 0.393,0 2.838,0 3.072,-0.012 0.232,-0.023 0.43,-0.043 0.527,-0.068 0.062,-0.01 0.135,-0.043 0.197,-0.043 0.061,0 0.074,0.043 0.074,0.101 0,0.078 -0.062,0.211 -0.1,0.725 -0.012,0.113 -0.037,0.604999 -0.061,0.738999 -0.012,0.056 -0.037,0.123 -0.123,0.123 -0.086,0 -0.111,-0.056 -0.111,-0.157 0,-0.079 -0.012,-0.269 -0.072,-0.402 -0.086,-0.202999 -0.209,-0.335999 -0.824,-0.402999 -0.209,-0.021 -1.498,-0.044 -1.744,-0.044 -0.061,0 -0.086,0.033 -0.086,0.111 v 2.826999 c 0,0.078 0.012,0.122 0.086,0.122 0.27,0 1.684,0 1.965,-0.021 0.295,-0.022 0.48,-0.057 0.59,-0.168 0.086,-0.09 0.135,-0.146 0.197,-0.146 0.049,0 0.086,0.022 0.086,0.088 0,0.067 -0.062,0.246 -0.098,0.815999 -0.025,0.224 -0.051,0.67 -0.051,0.749 0,0.089 0,0.212 -0.109,0.212 -0.086,0 -0.111,-0.044 -0.111,-0.102 -0.012,-0.11 -0.012,-0.256 -0.049,-0.402 -0.061,-0.224 -0.232,-0.39 -0.688,-0.435 -0.234,-0.022 -1.449,-0.033 -1.744,-0.033 -0.062,0 -0.074,0.044 -0.074,0.111 v 0.884 c 0,0.379 -0.012,1.407 0,1.728999 0.025,0.771 0.221,0.939 1.473,0.939 0.32,0 0.838,0 1.156,-0.134 0.32,-0.135 0.467,-0.369 0.553,-0.826 0.025,-0.123 0.051,-0.169 0.137,-0.169 0.098,0 0.098,0.09 0.098,0.202 0,0.257 -0.098,1.016 -0.16,1.239 -0.086,0.289 -0.197,0.289 -0.664,0.289 -1.855,0 -2.678,-0.065 -3.402,-0.065 -0.283,0 -1.057,0.032 -1.549,0.032 -0.16,0 -0.246,-0.032 -0.246,-0.11 0,-0.056 0.051,-0.091 0.197,-0.091 0.184,0 0.332,-0.021 0.443,-0.044 0.244,-0.044 0.307,-0.29 0.355,-0.614 0.061,-0.47 0.061,-1.350999 0.061,-2.377999 v -1.964999 z m 10.429,-3.193999 c 0.037,-0.191 0.111,-0.292 0.211,-0.292 0.096,0 0.172,0.056 0.33,0.347 l 3.355,6.300998 3.342,-6.377998 c 0.084,-0.179 0.158,-0.269 0.27,-0.269 0.112,0 0.184,0.113 0.221,0.347 l 1.119,6.903997 c 0.111,0.703 0.232,1.027 0.602,1.128 0.357,0.101 0.602,0.11 0.762,0.11 0.111,0 0.197,0.013 0.197,0.079 0,0.09 -0.148,0.122 -0.318,0.122 -0.309,0 -2.004,-0.032 -2.496,-0.065 -0.283,-0.022 -0.355,-0.057 -0.355,-0.123 0,-0.057 0.049,-0.09 0.135,-0.123 0.074,-0.022 0.109,-0.168 0.061,-0.481 l -0.736,-4.913998 h -0.051 l -2.678,5.070998 c -0.281,0.525 -0.344,0.626 -0.453,0.626 -0.111,0 -0.234,-0.224 -0.432,-0.559 -0.295,-0.515 -1.266,-2.223999 -1.412,-2.535999 -0.111,-0.234 -0.848,-1.642999 -1.279,-2.478999 h -0.049 l -0.639,4.444998 a 4.294,4.2939985 0 0 0 -0.035,0.525 c 0,0.212 0.158,0.312 0.367,0.357 0.221,0.045 0.395,0.055 0.516,0.055 0.1,0 0.184,0.023 0.184,0.079 0,0.102 -0.111,0.122 -0.293,0.122 -0.516,0 -1.068,-0.032 -1.291,-0.032 -0.232,0 -0.822,0.032 -1.217,0.032 -0.123,0 -0.221,-0.021 -0.221,-0.122 0,-0.056 0.074,-0.079 0.197,-0.079 0.098,0 0.184,0 0.369,-0.032 0.344,-0.067 0.441,-0.503 0.504,-0.883 z m 14.573,3.193999 c 0,-1.697 0,-2.011 -0.023,-2.368999 -0.025,-0.378 -0.123,-0.557 -0.529,-0.635 a 2.685,2.6849991 0 0 0 -0.479,-0.035 c -0.137,0 -0.209,-0.022 -0.209,-0.101 0,-0.078 0.086,-0.101 0.27,-0.101 0.65,0 1.426,0.035 1.77,0.035 0.395,0 2.838,0 3.072,-0.012 0.232,-0.023 0.43,-0.043 0.527,-0.068 0.062,-0.01 0.135,-0.043 0.197,-0.043 0.061,0 0.074,0.043 0.074,0.101 0,0.078 -0.062,0.211 -0.1,0.725 -0.012,0.113 -0.037,0.604999 -0.061,0.738999 -0.014,0.056 -0.037,0.123 -0.123,0.123 -0.086,0 -0.111,-0.056 -0.111,-0.157 0,-0.079 -0.012,-0.269 -0.074,-0.402 -0.086,-0.202999 -0.209,-0.335999 -0.822,-0.402999 -0.209,-0.021 -1.498,-0.044 -1.744,-0.044 -0.062,0 -0.086,0.033 -0.086,0.111 v 2.826999 c 0,0.078 0.014,0.122 0.086,0.122 0.27,0 1.684,0 1.965,-0.021 0.295,-0.022 0.48,-0.057 0.59,-0.168 0.086,-0.09 0.137,-0.146 0.197,-0.146 0.049,0 0.086,0.022 0.086,0.088 0,0.067 -0.061,0.246 -0.098,0.815999 -0.025,0.224 -0.049,0.67 -0.049,0.749 0,0.089 0,0.212 -0.111,0.212 -0.086,0 -0.111,-0.044 -0.111,-0.102 -0.012,-0.11 -0.012,-0.256 -0.049,-0.402 -0.062,-0.224 -0.234,-0.39 -0.688,-0.435 -0.234,-0.022 -1.449,-0.033 -1.744,-0.033 -0.061,0 -0.074,0.044 -0.074,0.111 v 0.884 c 0,0.379 -0.012,1.407 0,1.728999 0.023,0.771 0.223,0.939 1.475,0.939 0.318,0 0.836,0 1.154,-0.134 0.318,-0.135 0.467,-0.369 0.553,-0.826 0.025,-0.123 0.051,-0.169 0.135,-0.169 0.1,0 0.1,0.09 0.1,0.202 0,0.257 -0.1,1.016 -0.16,1.239 -0.086,0.289 -0.197,0.289 -0.664,0.289 -1.855,0 -2.678,-0.065 -3.402,-0.065 -0.283,0 -1.059,0.032 -1.549,0.032 -0.16,0 -0.246,-0.032 -0.246,-0.11 0,-0.056 0.049,-0.091 0.197,-0.091 0.186,0 0.332,-0.021 0.441,-0.044 0.246,-0.044 0.309,-0.29 0.357,-0.614 0.061,-0.47 0.061,-1.350999 0.061,-2.377999 v -1.964999 z m 10.664,3.686998 c 0.025,0.87 0.186,1.161 0.43,1.239 0.209,0.067 0.443,0.077 0.639,0.077 0.135,0 0.209,0.023 0.209,0.091 0,0.09 -0.109,0.11 -0.281,0.11 -0.799,0 -1.291,-0.032 -1.523,-0.032 -0.111,0 -0.689,0.032 -1.328,0.032 -0.16,0 -0.271,-0.01 -0.271,-0.11 0,-0.067 0.074,-0.091 0.197,-0.091 0.16,0 0.381,-0.01 0.555,-0.055 0.318,-0.09 0.367,-0.413 0.379,-1.386 l 0.111,-6.612997 c 0,-0.222 0.037,-0.38 0.16,-0.38 0.135,0 0.246,0.146 0.455,0.347 0.146,0.146 2.014,1.966999 3.807,3.585999 0.838,0.759999 2.496,2.368999 2.703,2.545999 h 0.062 l -0.123,-5.013999 c -0.012,-0.680999 -0.123,-0.893999 -0.418,-1.004999 -0.184,-0.067 -0.479,-0.067 -0.65,-0.067 -0.148,0 -0.197,-0.033 -0.197,-0.101 0,-0.088 0.137,-0.101 0.32,-0.101 0.639,0 1.229,0.035 1.486,0.035 0.135,0 0.602,-0.035 1.203,-0.035 0.16,0 0.283,0.012 0.283,0.101 0,0.068 -0.074,0.101 -0.223,0.101 -0.121,0 -0.221,0 -0.367,0.035 -0.344,0.088 -0.441,0.323 -0.455,0.947999 l -0.135,7.048998 c 0,0.244 -0.049,0.347 -0.158,0.347 -0.137,0 -0.283,-0.123 -0.42,-0.246 -0.773,-0.671 -2.346,-2.133999 -3.625,-3.283999 -1.338,-1.207 -2.701,-2.603999 -2.922,-2.814999 h -0.037 z m 14.791,-6.300997 -1.83,0.045 c -0.713,0.022 -1.008,0.078 -1.193,0.323999 a 1.233,1.2329996 0 0 0 -0.209,0.39 c -0.023,0.09 -0.061,0.133 -0.135,0.133 -0.086,0 -0.111,-0.055 -0.111,-0.177 0,-0.18 0.234,-1.195999 0.26,-1.285999 0.035,-0.144 0.072,-0.211 0.146,-0.211 0.1,0 0.223,0.111 0.529,0.135 0.355,0.033 0.822,0.055 1.229,0.055 h 4.865 c 0.393,0 0.664,-0.035 0.848,-0.055 0.186,-0.035 0.283,-0.057 0.332,-0.057 0.086,0 0.098,0.067 0.098,0.234 0,0.235 -0.035,1.005999 -0.035,1.296999 -0.014,0.111 -0.037,0.178 -0.111,0.178 -0.098,0 -0.123,-0.056 -0.135,-0.223 l -0.014,-0.123 c -0.023,-0.29 -0.355,-0.603999 -1.449,-0.624999 l -1.549,-0.034 v 4.580998 c 0,1.027 0,1.907999 0.061,2.389999 0.037,0.312 0.111,0.559 0.48,0.603 0.172,0.023 0.441,0.044 0.627,0.044 0.135,0 0.197,0.035 0.197,0.091 0,0.078 -0.1,0.11 -0.234,0.11 -0.812,0 -1.586,-0.032 -1.93,-0.032 -0.281,0 -1.057,0.032 -1.547,0.032 -0.16,0 -0.246,-0.032 -0.246,-0.11 0,-0.056 0.049,-0.091 0.197,-0.091 0.184,0 0.33,-0.021 0.441,-0.044 0.246,-0.044 0.318,-0.29 0.355,-0.614 0.062,-0.47 0.062,-1.350999 0.062,-2.377999 V 32.216989 Z M 56.22,52.981979 c 0,-1.696 0,-2.011 -0.023,-2.367 -0.025,-0.38 -0.123,-0.559 -0.53,-0.637 a 2.797,2.796999 0 0 0 -0.479,-0.034 c -0.135,0 -0.209,-0.022 -0.209,-0.101 0,-0.079 0.086,-0.101 0.27,-0.101 0.652,0 1.426,0.034 1.795,0.034 0.293,0 1.068,-0.034 1.511,-0.034 0.184,0 0.27,0.022 0.27,0.101 0,0.079 -0.073,0.101 -0.196,0.101 -0.135,0 -0.209,0.012 -0.356,0.034 -0.332,0.056 -0.431,0.245 -0.455,0.637 -0.025,0.356 -0.025,0.671 -0.025,2.367 v 1.563 c 0,1.621 0.356,2.302 0.959,2.749 0.553,0.413 1.118,0.456 1.536,0.456 0.539,0 1.203,-0.156 1.695,-0.602 0.676,-0.615 0.712,-1.62 0.712,-2.771 v -1.396 c 0,-1.696 0,-2.011 -0.024,-2.367 -0.025,-0.38 -0.123,-0.559 -0.528,-0.637 -0.099,-0.022 -0.308,-0.034 -0.443,-0.034 -0.135,0 -0.209,-0.022 -0.209,-0.101 0,-0.079 0.086,-0.101 0.258,-0.101 0.626,0 1.401,0.034 1.414,0.034 0.147,0 0.921,-0.034 1.4,-0.034 0.172,0 0.259,0.022 0.259,0.101 0,0.079 -0.074,0.101 -0.222,0.101 -0.135,0 -0.209,0.012 -0.356,0.034 -0.332,0.056 -0.43,0.245 -0.455,0.637 -0.023,0.356 -0.023,0.671 -0.023,2.367 v 1.196 c 0,1.239 -0.135,2.557 -1.168,3.361 -0.872,0.681 -1.757,0.804 -2.556,0.804 -0.651,0 -1.831,-0.033 -2.728,-0.77 -0.627,-0.515 -1.094,-1.341 -1.094,-2.96 z m 13.894,3.686 c 0.025,0.872 0.185,1.163 0.43,1.24 0.209,0.067 0.443,0.078 0.639,0.078 0.135,0 0.21,0.022 0.21,0.091 0,0.088 -0.111,0.111 -0.283,0.111 -0.798,0 -1.291,-0.035 -1.523,-0.035 -0.111,0 -0.688,0.035 -1.327,0.035 -0.16,0 -0.271,-0.012 -0.271,-0.111 0,-0.068 0.074,-0.091 0.196,-0.091 0.159,0 0.381,-0.011 0.554,-0.055 0.318,-0.091 0.368,-0.415 0.381,-1.385 l 0.111,-6.613 c 0,-0.224 0.036,-0.381 0.159,-0.381 0.135,0 0.246,0.146 0.455,0.347 0.147,0.146 2.015,1.967 3.809,3.586 0.835,0.759 2.494,2.368 2.703,2.546 h 0.062 l -0.122,-5.014 c -0.013,-0.682 -0.123,-0.894 -0.418,-1.006 -0.185,-0.067 -0.479,-0.067 -0.652,-0.067 -0.147,0 -0.196,-0.033 -0.196,-0.101 0,-0.089 0.135,-0.101 0.318,-0.101 0.639,0 1.229,0.034 1.487,0.034 0.134,0 0.603,-0.034 1.205,-0.034 0.158,0 0.281,0.012 0.281,0.101 0,0.067 -0.072,0.101 -0.221,0.101 -0.123,0 -0.221,0 -0.369,0.034 -0.344,0.089 -0.442,0.323 -0.454,0.948 l -0.136,7.049 c 0,0.245 -0.047,0.348 -0.159,0.348 -0.136,0 -0.283,-0.125 -0.418,-0.246 -0.774,-0.671 -2.347,-2.134 -3.625,-3.285 -1.34,-1.206 -2.704,-2.603 -2.924,-2.814 h -0.037 z m 13.156,-3.686 c 0,-1.696 0,-2.011 -0.023,-2.367 -0.025,-0.38 -0.147,-0.57 -0.418,-0.626 a 1.936,1.9359993 0 0 0 -0.441,-0.045 c -0.123,0 -0.197,-0.022 -0.197,-0.111 0,-0.067 0.099,-0.09 0.295,-0.09 0.467,0 1.241,0.034 1.598,0.034 0.307,0 1.032,-0.034 1.499,-0.034 0.16,0 0.258,0.022 0.258,0.09 0,0.089 -0.074,0.111 -0.197,0.111 -0.123,0 -0.221,0.012 -0.368,0.034 -0.332,0.056 -0.43,0.245 -0.455,0.637 -0.025,0.356 -0.025,0.671 -0.025,2.367 v 1.966 c 0,1.083 0,1.966 0.05,2.447 0.037,0.3 0.122,0.502 0.491,0.546 0.172,0.022 0.441,0.045 0.627,0.045 0.135,0 0.197,0.035 0.197,0.091 0,0.076 -0.1,0.111 -0.234,0.111 -0.811,0 -1.585,-0.035 -1.917,-0.035 -0.283,0 -1.057,0.035 -1.549,0.035 -0.159,0 -0.245,-0.035 -0.245,-0.111 0,-0.056 0.049,-0.091 0.197,-0.091 0.184,0 0.331,-0.022 0.442,-0.045 0.246,-0.044 0.318,-0.233 0.356,-0.558 0.061,-0.47 0.061,-1.353 0.061,-2.436 v -1.965 z m 6.635,-2.143 c -0.283,-0.615 -0.492,-0.738 -0.934,-0.85 -0.186,-0.045 -0.381,-0.045 -0.479,-0.045 -0.111,0 -0.148,-0.033 -0.148,-0.101 0,-0.089 0.136,-0.101 0.321,-0.101 0.65,0 1.35,0.034 1.779,0.034 0.309,0 0.898,-0.034 1.514,-0.034 0.146,0 0.281,0.022 0.281,0.101 0,0.079 -0.074,0.101 -0.184,0.101 -0.197,0 -0.381,0.012 -0.479,0.079 a 0.26,0.25999991 0 0 0 -0.123,0.234 c 0,0.144 0.109,0.458 0.283,0.86 l 2.113,5.07 h 0.047 c 0.529,-1.229 2.125,-4.826 2.422,-5.562 a 1.27,1.2699996 0 0 0 0.109,-0.413 0.217,0.21699992 0 0 0 -0.158,-0.213 1.822,1.8219994 0 0 0 -0.492,-0.056 c -0.111,0 -0.209,-0.011 -0.209,-0.089 0,-0.09 0.111,-0.112 0.344,-0.112 0.615,0 1.131,0.034 1.291,0.034 0.209,0 0.787,-0.034 1.156,-0.034 0.158,0 0.258,0.022 0.258,0.101 0,0.079 -0.074,0.101 -0.197,0.101 -0.123,0 -0.381,0 -0.602,0.135 -0.16,0.101 -0.346,0.29 -0.678,1.006 -0.479,1.049 -0.811,1.652 -1.475,3.026 -0.787,1.63 -1.361,2.848 -1.633,3.405 -0.32,0.648 -0.393,0.827 -0.564,0.827 -0.16,0 -0.234,-0.155 -0.469,-0.681 z m 12.236,2.143 c 0,-1.696 0,-2.011 -0.023,-2.367 -0.025,-0.38 -0.123,-0.559 -0.529,-0.637 a 2.797,2.796999 0 0 0 -0.479,-0.034 c -0.137,0 -0.211,-0.022 -0.211,-0.101 0,-0.079 0.088,-0.101 0.271,-0.101 0.652,0 1.426,0.034 1.77,0.034 0.393,0 2.838,0 3.072,-0.012 0.232,-0.022 0.43,-0.045 0.527,-0.067 0.062,-0.011 0.137,-0.045 0.197,-0.045 0.062,0 0.074,0.045 0.074,0.102 0,0.078 -0.062,0.212 -0.1,0.727 -0.012,0.111 -0.035,0.604 -0.061,0.736 -0.012,0.056 -0.037,0.123 -0.123,0.123 -0.086,0 -0.111,-0.055 -0.111,-0.156 0,-0.078 -0.012,-0.269 -0.074,-0.402 -0.086,-0.2 -0.209,-0.335 -0.822,-0.402 -0.209,-0.021 -1.498,-0.044 -1.744,-0.044 -0.062,0 -0.086,0.033 -0.086,0.111 v 2.825 c 0,0.078 0.012,0.124 0.086,0.124 0.27,0 1.682,0 1.965,-0.022 0.295,-0.023 0.479,-0.057 0.59,-0.168 0.086,-0.09 0.135,-0.146 0.197,-0.146 0.049,0 0.086,0.022 0.086,0.09 0,0.066 -0.061,0.246 -0.098,0.815 -0.025,0.223 -0.051,0.67 -0.051,0.748 0,0.091 0,0.212 -0.109,0.212 -0.086,0 -0.111,-0.045 -0.111,-0.101 -0.012,-0.111 -0.012,-0.256 -0.049,-0.4 -0.062,-0.226 -0.234,-0.392 -0.689,-0.437 -0.232,-0.022 -1.449,-0.033 -1.744,-0.033 -0.061,0 -0.072,0.044 -0.072,0.11 v 0.883 c 0,0.38 -0.012,1.408 0,1.731 0.023,0.771 0.221,0.938 1.475,0.938 0.318,0 0.834,0 1.154,-0.134 0.32,-0.134 0.467,-0.369 0.553,-0.827 0.025,-0.123 0.051,-0.168 0.135,-0.168 0.1,0 0.1,0.09 0.1,0.201 0,0.258 -0.1,1.018 -0.16,1.241 -0.086,0.289 -0.197,0.289 -0.664,0.289 -1.855,0 -2.68,-0.067 -3.402,-0.067 -0.283,0 -1.057,0.035 -1.549,0.035 -0.16,0 -0.246,-0.035 -0.246,-0.111 0,-0.056 0.049,-0.091 0.197,-0.091 0.184,0 0.332,-0.022 0.443,-0.045 0.244,-0.044 0.307,-0.289 0.355,-0.613 0.061,-0.47 0.061,-1.352 0.061,-2.38 v -1.964 z m 11.424,-2.513 c 0,-0.09 0.025,-0.134 0.111,-0.156 0.123,-0.035 0.344,-0.045 0.652,-0.045 0.725,0 1.879,0.457 1.879,2.045 0,0.915 -0.355,1.429 -0.725,1.675 -0.221,0.146 -0.381,0.19 -0.873,0.19 -0.307,0 -0.676,-0.035 -0.934,-0.113 -0.086,-0.032 -0.111,-0.077 -0.111,-0.2 v -3.396 z m -1.449,4.479 c 0,1.028 0,1.91 -0.061,2.38 -0.049,0.324 -0.109,0.569 -0.355,0.613 a 2.224,2.2239992 0 0 1 -0.443,0.045 c -0.146,0 -0.197,0.035 -0.197,0.091 0,0.076 0.088,0.111 0.246,0.111 0.492,0 1.266,-0.035 1.5,-0.035 0.184,0 1.092,0.035 1.805,0.035 0.16,0 0.246,-0.035 0.246,-0.111 0,-0.056 -0.049,-0.091 -0.146,-0.091 -0.148,0 -0.418,-0.022 -0.604,-0.045 -0.367,-0.044 -0.441,-0.289 -0.479,-0.613 -0.062,-0.47 -0.062,-1.352 -0.062,-2.391 v -0.157 c 0,-0.066 0.037,-0.088 0.1,-0.088 l 1.068,0.021 c 0.086,0 0.16,0.011 0.221,0.078 0.16,0.167 0.727,0.928 1.219,1.541 0.688,0.861 1.154,1.385 1.684,1.643 0.318,0.155 0.625,0.213 1.312,0.213 h 1.168 c 0.146,0 0.232,-0.023 0.232,-0.111 0,-0.056 -0.049,-0.091 -0.146,-0.091 -0.097,0 -0.209,-0.011 -0.346,-0.032 -0.184,-0.035 -0.686,-0.113 -1.375,-0.76 -0.725,-0.693 -1.572,-1.688 -2.666,-2.938 1.242,-0.916 1.621,-1.676 1.621,-2.503 0,-0.747 -0.49,-1.317 -0.834,-1.53 -0.664,-0.413 -1.486,-0.48 -2.262,-0.48 -0.381,0 -1.314,0.034 -1.732,0.034 -0.258,0 -1.031,-0.034 -1.682,-0.034 -0.186,0 -0.271,0.022 -0.271,0.101 0,0.079 0.074,0.101 0.209,0.101 0.172,0 0.381,0.012 0.479,0.034 0.406,0.078 0.504,0.257 0.529,0.637 0.023,0.356 0.023,0.671 0.023,2.367 v 1.965 z m 10.631,3.105 c -0.199,-0.078 -0.234,-0.135 -0.234,-0.379 0,-0.615 0.049,-1.286 0.061,-1.465 0.012,-0.168 0.051,-0.289 0.148,-0.289 0.109,0 0.123,0.1 0.123,0.188 0,0.146 0.049,0.38 0.109,0.57 0.271,0.827 0.996,1.129 1.758,1.129 1.104,0 1.646,-0.682 1.646,-1.274 0,-0.548 -0.186,-1.072 -1.205,-1.787 l -0.564,-0.402 c -1.352,-0.96 -1.82,-1.742 -1.82,-2.646 0,-1.229 1.133,-2.111 2.838,-2.111 0.801,0 1.316,0.111 1.637,0.19 0.109,0.021 0.172,0.056 0.172,0.134 0,0.146 -0.049,0.469 -0.049,1.34 0,0.246 -0.037,0.336 -0.135,0.336 -0.088,0 -0.123,-0.067 -0.123,-0.201 0,-0.1 -0.062,-0.447 -0.32,-0.738 -0.186,-0.211 -0.541,-0.547 -1.34,-0.547 -0.91,0 -1.463,0.481 -1.463,1.15 0,0.515 0.285,0.905 1.303,1.608 l 0.344,0.234 c 1.477,1.04 2.016,1.787 2.016,2.85 0,0.646 -0.27,1.418 -1.156,1.942 -0.613,0.357 -1.301,0.458 -1.953,0.458 -0.713,0 -1.266,-0.077 -1.793,-0.29 z m 10.033,-5.071 c 0,-1.696 0,-2.011 -0.023,-2.367 -0.025,-0.38 -0.148,-0.57 -0.418,-0.626 a 1.936,1.9359993 0 0 0 -0.441,-0.045 c -0.123,0 -0.197,-0.022 -0.197,-0.111 0,-0.067 0.098,-0.09 0.295,-0.09 0.467,0 1.24,0.034 1.596,0.034 0.309,0 1.033,-0.034 1.5,-0.034 0.16,0 0.258,0.022 0.258,0.09 0,0.089 -0.072,0.111 -0.195,0.111 -0.123,0 -0.223,0.012 -0.369,0.034 -0.332,0.056 -0.43,0.245 -0.455,0.637 -0.025,0.356 -0.025,0.671 -0.025,2.367 v 1.966 c 0,1.083 0,1.966 0.051,2.447 0.037,0.3 0.121,0.502 0.49,0.546 0.172,0.022 0.443,0.045 0.627,0.045 0.135,0 0.197,0.035 0.197,0.091 0,0.076 -0.1,0.111 -0.232,0.111 -0.812,0 -1.586,-0.035 -1.918,-0.035 -0.283,0 -1.057,0.035 -1.549,0.035 -0.16,0 -0.244,-0.035 -0.244,-0.111 0,-0.056 0.049,-0.091 0.195,-0.091 0.186,0 0.332,-0.022 0.443,-0.045 0.244,-0.044 0.318,-0.233 0.355,-0.558 0.061,-0.47 0.061,-1.353 0.061,-2.436 v -1.965 z m 9.401,-2.613 -1.832,0.045 c -0.713,0.022 -1.008,0.078 -1.191,0.323 a 1.314,1.3139995 0 0 0 -0.209,0.391 c -0.025,0.09 -0.061,0.136 -0.135,0.136 -0.086,0 -0.111,-0.058 -0.111,-0.179 0,-0.179 0.234,-1.196 0.258,-1.286 0.037,-0.146 0.074,-0.212 0.148,-0.212 0.098,0 0.221,0.111 0.527,0.134 0.357,0.034 0.824,0.057 1.23,0.057 h 4.865 c 0.393,0 0.664,-0.034 0.848,-0.057 0.184,-0.033 0.283,-0.056 0.332,-0.056 0.086,0 0.098,0.067 0.098,0.234 0,0.235 -0.037,1.007 -0.037,1.297 -0.012,0.11 -0.037,0.178 -0.109,0.178 -0.1,0 -0.123,-0.056 -0.137,-0.223 l -0.012,-0.124 c -0.023,-0.29 -0.355,-0.603 -1.451,-0.626 l -1.547,-0.032 v 4.579 c 0,1.028 0,1.91 0.062,2.391 0.035,0.313 0.109,0.559 0.479,0.603 0.172,0.022 0.441,0.045 0.625,0.045 0.137,0 0.197,0.035 0.197,0.091 0,0.076 -0.098,0.111 -0.234,0.111 -0.811,0 -1.584,-0.035 -1.928,-0.035 -0.283,0 -1.057,0.035 -1.547,0.035 -0.16,0 -0.246,-0.035 -0.246,-0.111 0,-0.056 0.047,-0.091 0.197,-0.091 0.182,0 0.33,-0.022 0.441,-0.045 0.246,-0.044 0.318,-0.289 0.355,-0.613 0.062,-0.47 0.062,-1.352 0.062,-2.38 v -4.58 z m 10.736,4.926 c 0,-0.603 -0.123,-0.849 -0.283,-1.174 -0.086,-0.179 -1.732,-2.635 -2.162,-3.215 -0.307,-0.414 -0.615,-0.693 -0.848,-0.816 -0.16,-0.078 -0.369,-0.146 -0.516,-0.146 -0.098,0 -0.186,-0.022 -0.186,-0.101 0,-0.066 0.088,-0.101 0.234,-0.101 0.221,0 1.143,0.034 1.549,0.034 0.258,0 0.762,-0.034 1.314,-0.034 0.123,0 0.184,0.034 0.184,0.101 0,0.067 -0.086,0.078 -0.271,0.123 a 0.208,0.20799993 0 0 0 -0.172,0.201 c 0,0.09 0.062,0.224 0.148,0.379 0.172,0.337 1.891,3.028 2.088,3.341 0.123,-0.269 1.672,-2.727 1.844,-3.071 0.125,-0.246 0.172,-0.437 0.172,-0.581 0,-0.111 -0.047,-0.235 -0.258,-0.279 -0.109,-0.022 -0.221,-0.045 -0.221,-0.112 0,-0.078 0.061,-0.101 0.209,-0.101 0.404,0 0.799,0.034 1.156,0.034 0.27,0 1.08,-0.034 1.312,-0.034 0.135,0 0.223,0.022 0.223,0.09 0,0.078 -0.1,0.111 -0.234,0.111 -0.123,0 -0.355,0.045 -0.541,0.135 -0.258,0.111 -0.393,0.246 -0.662,0.547 -0.406,0.447 -2.127,3.071 -2.348,3.553 -0.184,0.4 -0.184,0.747 -0.184,1.116 v 0.915 c 0,0.179 0,0.648 0.037,1.118 0.023,0.324 0.135,0.569 0.502,0.613 0.174,0.022 0.443,0.045 0.615,0.045 0.135,0 0.197,0.035 0.197,0.091 0,0.076 -0.1,0.111 -0.26,0.111 -0.773,0 -1.547,-0.035 -1.879,-0.035 -0.309,0 -1.082,0.035 -1.535,0.035 -0.172,0 -0.271,-0.023 -0.271,-0.111 0,-0.056 0.061,-0.091 0.197,-0.091 0.172,0 0.318,-0.022 0.43,-0.045 0.244,-0.044 0.355,-0.289 0.381,-0.613 0.037,-0.47 0.037,-0.939 0.037,-1.118 v -0.915 z"
       fill="#2d67af"
       id="path4" />
    <path
       fill="#a98c57"
       d="m 18.245,13.986995 -5.419,-0.013 6.628,3.529999 z m 1.101,12.806996 4.973,0.597999 2.409,6.174998 z m 0.153,-9.275997 -0.153,8.918997 -5.122,2.028999 z"
       id="path6" />
    <path
       fill="#2d67af"
       d="m 19.424,40.256986 7.258,-2.344999 6.82,2.139999 -6.61,-6.351998 z m 16.118,-26.282991 5.425,-0.014 -6.635,3.526999 z m -1.226,12.872996 -4.972,0.596999 -2.407,6.172998 z m -0.152,-9.273997 0.152,8.916997 5.123,2.025999 z"
       id="path8" />
    <path
       d="m 45.66,0 c -4.855,5.032998 -8.19,2.823999 -9.908,2.417999 -0.901,-0.402 -2.034,-0.64 -3.261,-0.64 -2.967,0 -5.375,1.391 -5.375,3.106999 0,0.621 0.319,1.196 0.861,1.679 0.554,-0.565 1.414,-1.021 2.44,-1.29 a 10.899,10.898996 0 0 1 4.937,0.232 c 0.187,0.058 0.389,0.12 0.605,0.18 v 0.003 c 0.254,0.088 0.486,0.146 0.685,0.188 0.091,0.019 0.168,0.041 0.263,0.058 5.494,1.340999 8.795,-1.696999 8.795,-1.696999 z"
       fill="#a98c57"
       id="path10" />
  </g>
</svg>
